<?xml version="1.0" encoding="UTF-8"?>
<svg id="Layer_1" data-name="Layer 1" xmlns="http://www.w3.org/2000/svg" viewBox="0 0 180.69 92.56">
  <defs>
    <style>
      .cls-1 {
        fill: #1a1a1a;
      }
    </style>
  </defs>
  <path class="cls-1" d="m90.35,91.36C40.99,91.36,2.33,71.56,2.33,46.28S40.99,1.2,90.35,1.2s88.01,19.8,88.01,45.08-38.66,45.08-88.01,45.08Zm0-82.02C47.06,9.35,10.49,26.26,10.49,46.28s36.57,36.93,79.86,36.93,79.86-16.91,79.86-36.93S133.64,9.35,90.35,9.35Z"/>
  <path class="cls-1" d="m63.23,60.94l25.44-16.82c6.21-4.11,7.92-12.47,3.81-18.68h0c-4.11-6.21-12.47-7.92-18.68-3.81l-25.44,16.82s14.87,4.43,14.87,22.5Z"/>
  <path class="cls-1" d="m97.5,76.19l33.84-22.37c6.21-4.11,7.92-12.47,3.81-18.68h0c-4.11-6.21-12.47-7.92-18.68-3.81l-33.84,22.37s14.87,4.54,14.87,22.5Z"/>
</svg>